<svg width="210" height="40" viewBox="0 0 210 40" fill="none" xmlns="http://www.w3.org/2000/svg">
<path d="M32 6.60207L26.0755 4L22 7.92643L26.9952 13L31.0707 11.9834L32 6.60207Z" stroke="#1B1A1A" stroke-width="1.2" stroke-linecap="round" stroke-linejoin="round"/>
<path d="M33.4778 22.6698L31.807 16H28.3228H27.6772H24.193L22.5127 22.6698L22 36H27.6772H28.3228H34L33.4778 22.6698Z" stroke="#1B1A1A" stroke-width="1.2" stroke-linecap="round" stroke-linejoin="round"/>
<path d="M15 15.0633L14.2327 9.21811L8.80585 8L7 14.3535L9.93801 17L15 15.0633Z" stroke="#1B1A1A" stroke-width="1.2" stroke-linecap="round" stroke-linejoin="round"/>
<path d="M17.4873 25.3365L14.5 20H12.3228H11.6772H8.19304L6.51266 25.3365L6 36H11.6772H12.3228H18L17.4873 25.3365Z" stroke="#1B1A1A" stroke-width="1.2" stroke-linecap="round" stroke-linejoin="round"/>
<path d="M27 20L30 24" stroke="#1B1A1A" stroke-width="1.2" stroke-linecap="round" stroke-linejoin="round"/>
<path d="M27 8L29 9" stroke="#1B1A1A" stroke-width="1.2" stroke-linecap="round" stroke-linejoin="round"/>
<path d="M14 26L9 32" stroke="#1B1A1A" stroke-width="1.2" stroke-linecap="round" stroke-linejoin="round"/>
<path d="M12 11L10 14" stroke="#1B1A1A" stroke-width="1.2" stroke-linecap="round" stroke-linejoin="round"/>
<path d="M30 27L26 33" stroke="#1B1A1A" stroke-width="1.2" stroke-linecap="round" stroke-linejoin="round"/>
<path d="M59.7891 11.7266H62.6484V29H59.7891L53.9766 18.7812V13.3906L59.7891 23.6328V11.7266ZM50.1562 29V11.7266H53.0156V29H50.1562ZM73.0078 15.7109C73.8672 15.7578 74.6484 15.9688 75.3516 16.3438C76.0547 16.7031 76.6406 17.1875 77.1094 17.7969C77.5938 18.3906 77.9688 19.0859 78.2344 19.8828C78.5 20.6797 78.6328 21.5312 78.6328 22.4375C78.6328 23.3438 78.4922 24.1953 78.2109 24.9922C77.9453 25.7734 77.5703 26.4609 77.0859 27.0547C76.6016 27.6328 76.0078 28.1016 75.3047 28.4609C74.6016 28.8203 73.8359 29.0312 73.0078 29.0938V26.8438C73.7891 26.6719 74.4219 26.1797 74.9062 25.3672C75.4062 24.5547 75.6562 23.5781 75.6562 22.4375C75.6562 21.8594 75.5938 21.3203 75.4688 20.8203C75.3594 20.3047 75.1875 19.8438 74.9531 19.4375C74.7188 19.0312 74.4375 18.6953 74.1094 18.4297C73.7812 18.1641 73.4141 17.9922 73.0078 17.9141V15.7109ZM66.4688 22.3906C66.4688 21.4844 66.6016 20.6406 66.8672 19.8594C67.1328 19.0781 67.5078 18.3984 67.9922 17.8203C68.4922 17.2266 69.0859 16.75 69.7734 16.3906C70.4609 16.0312 71.2188 15.8125 72.0469 15.7344V17.9141C71.2656 18.0859 70.6406 18.5781 70.1719 19.3906C69.7031 20.2031 69.4688 21.1797 69.4688 22.3203C69.4688 22.8984 69.5234 23.4453 69.6328 23.9609C69.7578 24.4766 69.9297 24.9375 70.1484 25.3438C70.3672 25.75 70.6328 26.0859 70.9453 26.3516C71.2734 26.6172 71.6406 26.7812 72.0469 26.8438V29.0938C71.1875 29.0312 70.4141 28.8203 69.7266 28.4609C69.0391 28.0859 68.4531 27.6016 67.9688 27.0078C67.4844 26.4141 67.1094 25.7188 66.8438 24.9219C66.5938 24.125 66.4688 23.2812 66.4688 22.3906ZM82.3125 10.7891H85.1484V27.4297C85.1328 27.6484 85.1094 27.8984 85.0781 28.1797C85.0469 28.4609 85.0234 28.7344 85.0078 29H82.3125V10.7891ZM93.8672 19.7891C94.0547 20.5078 94.1484 21.2969 94.1484 22.1562C94.1484 23.0469 94.0391 23.9141 93.8203 24.7578C93.6172 25.6016 93.2969 26.3516 92.8594 27.0078C92.4375 27.6484 91.8984 28.1641 91.2422 28.5547C90.6016 28.9297 89.8438 29.1172 88.9688 29.1172C88.4219 29.1172 87.8984 29.0547 87.3984 28.9297C86.8984 28.8047 86.4688 28.6328 86.1094 28.4141V25.9766C86.3438 26.2422 86.6172 26.4609 86.9297 26.6328C87.2578 26.8047 87.6172 26.8906 88.0078 26.8906C88.4766 26.8906 88.8984 26.7734 89.2734 26.5391C89.6641 26.3047 89.9922 25.9922 90.2578 25.6016C90.5391 25.1953 90.7578 24.7188 90.9141 24.1719C91.0859 23.625 91.1719 23.0391 91.1719 22.4141C91.1719 21.8047 91.0938 21.2266 90.9375 20.6797C90.7969 20.1328 90.5938 19.6484 90.3281 19.2266C90.0781 18.8047 89.7656 18.4688 89.3906 18.2188C89.0156 17.9688 88.5938 17.8438 88.125 17.8438C87.7188 17.8438 87.3438 17.9297 87 18.1016C86.6719 18.2578 86.375 18.4922 86.1094 18.8047V16.2969C86.4688 16.0938 86.8672 15.9375 87.3047 15.8281C87.7422 15.7188 88.1953 15.6641 88.6641 15.6641C89.1797 15.6641 89.7031 15.7344 90.2344 15.875C90.7656 16.0156 91.2578 16.25 91.7109 16.5781C92.1797 16.9062 92.6016 17.3359 92.9766 17.8672C93.3672 18.3984 93.6641 19.0391 93.8672 19.7891ZM103.547 15.7109C104.406 15.7578 105.188 15.9688 105.891 16.3438C106.594 16.7031 107.18 17.1875 107.648 17.7969C108.133 18.3906 108.508 19.0859 108.773 19.8828C109.039 20.6797 109.172 21.5312 109.172 22.4375C109.172 23.3438 109.031 24.1953 108.75 24.9922C108.484 25.7734 108.109 26.4609 107.625 27.0547C107.141 27.6328 106.547 28.1016 105.844 28.4609C105.141 28.8203 104.375 29.0312 103.547 29.0938V26.8438C104.328 26.6719 104.961 26.1797 105.445 25.3672C105.945 24.5547 106.195 23.5781 106.195 22.4375C106.195 21.8594 106.133 21.3203 106.008 20.8203C105.898 20.3047 105.727 19.8438 105.492 19.4375C105.258 19.0312 104.977 18.6953 104.648 18.4297C104.32 18.1641 103.953 17.9922 103.547 17.9141V15.7109ZM97.0078 22.3906C97.0078 21.4844 97.1406 20.6406 97.4062 19.8594C97.6719 19.0781 98.0469 18.3984 98.5312 17.8203C99.0312 17.2266 99.625 16.75 100.312 16.3906C101 16.0312 101.758 15.8125 102.586 15.7344V17.9141C101.805 18.0859 101.18 18.5781 100.711 19.3906C100.242 20.2031 100.008 21.1797 100.008 22.3203C100.008 22.8984 100.062 23.4453 100.172 23.9609C100.297 24.4766 100.469 24.9375 100.688 25.3438C100.906 25.75 101.172 26.0859 101.484 26.3516C101.812 26.6172 102.18 26.7812 102.586 26.8438V29.0938C101.727 29.0312 100.953 28.8203 100.266 28.4609C99.5781 28.0859 98.9922 27.6016 98.5078 27.0078C98.0234 26.4141 97.6484 25.7188 97.3828 24.9219C97.1328 24.125 97.0078 23.2812 97.0078 22.3906ZM123.867 10.7891V29H121.172L121.008 27.4297V10.7891H123.867ZM112.008 22.2031C112.008 20.9844 112.172 19.9609 112.5 19.1328C112.844 18.3047 113.281 17.6328 113.812 17.1172C114.344 16.6016 114.93 16.2344 115.57 16.0156C116.227 15.7812 116.867 15.6641 117.492 15.6641C117.977 15.6641 118.438 15.7188 118.875 15.8281C119.312 15.9375 119.703 16.0938 120.047 16.2969V18.7812C119.781 18.5 119.484 18.2734 119.156 18.1016C118.828 17.9297 118.461 17.8438 118.055 17.8438C117.57 17.8438 117.141 17.9688 116.766 18.2188C116.391 18.4531 116.07 18.7812 115.805 19.2031C115.555 19.625 115.359 20.1094 115.219 20.6562C115.078 21.2031 115.008 21.7891 115.008 22.4141C115.008 23.0391 115.086 23.625 115.242 24.1719C115.398 24.7031 115.609 25.1719 115.875 25.5781C116.141 25.9844 116.461 26.3047 116.836 26.5391C117.227 26.7734 117.648 26.8906 118.102 26.8906C118.867 26.8906 119.516 26.5859 120.047 25.9766V28.4141C119.672 28.6172 119.234 28.7891 118.734 28.9297C118.25 29.0547 117.734 29.1172 117.188 29.1172C116.562 29.1172 115.945 29.0078 115.336 28.7891C114.742 28.5547 114.211 28.1797 113.742 27.6641C113.148 26.9922 112.711 26.1641 112.43 25.1797C112.148 24.1797 112.008 23.1875 112.008 22.2031ZM140.625 15.7812C139.766 18.0781 139 20.1172 138.328 21.8984C137.656 23.6641 137.07 25.2188 136.57 26.5625C136.07 27.8906 135.625 29.0156 135.234 29.9375C134.859 30.8594 134.508 31.625 134.18 32.2344C133.867 32.8594 133.57 33.3438 133.289 33.6875C133.008 34.0469 132.719 34.3203 132.422 34.5078C132.125 34.6953 131.797 34.8047 131.438 34.8359C131.094 34.8828 130.695 34.9062 130.242 34.9062C130.102 34.9062 129.938 34.8828 129.75 34.8359C129.562 34.8047 129.375 34.7578 129.188 34.6953C129.016 34.6484 128.859 34.5938 128.719 34.5312C128.578 34.4844 128.484 34.4531 128.438 34.4375C128.5 34.1562 128.562 33.8906 128.625 33.6406C128.672 33.4219 128.719 33.2109 128.766 33.0078C128.828 32.8203 128.875 32.6875 128.906 32.6094C129.031 32.6094 129.219 32.6484 129.469 32.7266C129.734 32.8047 129.93 32.8438 130.055 32.8438C130.305 32.8438 130.523 32.8281 130.711 32.7969C130.914 32.7812 131.094 32.7109 131.25 32.5859C131.406 32.4766 131.555 32.3047 131.695 32.0703C131.836 31.8516 131.992 31.5312 132.164 31.1094L133.055 29L137.766 15.7812H140.625ZM132.562 27.7578L127.641 15.7812H130.477L133.852 24.6641L133.523 25.4609L132.562 27.7578ZM153.516 15.0547C153.156 14.6484 152.773 14.3438 152.367 14.1406C151.961 13.9375 151.523 13.8203 151.055 13.7891V11.4688C152.805 11.5469 154.273 12.1641 155.461 13.3203L153.516 15.0547ZM151.055 26.7969C151.523 26.75 151.961 26.625 152.367 26.4219C152.789 26.2188 153.172 25.9219 153.516 25.5312L155.461 27.2422C154.867 27.8203 154.203 28.2656 153.469 28.5781C152.734 28.8906 151.93 29.0703 151.055 29.1172V26.7969ZM143.461 20.2812C143.461 18.8906 143.625 17.6641 143.953 16.6016C144.297 15.5391 144.766 14.6406 145.359 13.9062C145.953 13.1719 146.648 12.6016 147.445 12.1953C148.258 11.7891 149.141 11.5469 150.094 11.4688V13.8125C149.578 13.8906 149.094 14.0703 148.641 14.3516C148.188 14.6172 147.789 15.0078 147.445 15.5234C147.102 16.0391 146.828 16.6953 146.625 17.4922C146.438 18.2734 146.336 19.2031 146.32 20.2812C146.336 21.375 146.438 22.3125 146.625 23.0938C146.828 23.875 147.102 24.5312 147.445 25.0625C147.789 25.5938 148.188 26 148.641 26.2812C149.109 26.5625 149.594 26.7344 150.094 26.7969V29.0938C149.141 29.0312 148.258 28.7969 147.445 28.3906C146.648 27.9844 145.953 27.4141 145.359 26.6797C144.766 25.9453 144.297 25.0469 143.953 23.9844C143.625 22.9062 143.461 21.6719 143.461 20.2812ZM162.164 24.9688C162.164 25.5 162.234 25.9219 162.375 26.2344C162.516 26.5312 162.711 26.7578 162.961 26.9141C163.211 27.0547 163.492 27.1484 163.805 27.1953C164.133 27.2422 164.484 27.2656 164.859 27.2656V29C164.656 29.0312 164.445 29.0547 164.227 29.0703C164.055 29.0859 163.852 29.0938 163.617 29.0938C163.383 29.1094 163.148 29.1172 162.914 29.1172C162.68 29.1172 162.445 29.1094 162.211 29.0938C161.977 29.0781 161.766 29.0547 161.578 29.0234C161.047 28.9141 160.633 28.6797 160.336 28.3203C160.039 27.9609 159.812 27.5625 159.656 27.125C159.5 26.6719 159.398 26.2344 159.352 25.8125C159.32 25.3906 159.305 25.0625 159.305 24.8281V24.5469V10.7891H162.164V24.9688ZM170.695 29H167.836V15.7812H170.695V29ZM170.953 11.5625C170.953 12.0312 170.789 12.4297 170.461 12.7578C170.133 13.0703 169.734 13.2266 169.266 13.2266C168.797 13.2266 168.398 13.0625 168.07 12.7344C167.758 12.4062 167.602 12.0156 167.602 11.5625C167.602 11.0938 167.766 10.6953 168.094 10.3672C168.422 10.0391 168.812 9.875 169.266 9.875C169.734 9.875 170.133 10.0391 170.461 10.3672C170.789 10.6953 170.953 11.0938 170.953 11.5625ZM177.234 15.7812L177.539 17.1406V29H174.68V15.7812H177.234ZM188.297 15.6406C188.828 15.6406 189.328 15.75 189.797 15.9688C190.266 16.1719 190.672 16.4688 191.016 16.8594C191.375 17.25 191.648 17.7188 191.836 18.2656C192.039 18.7969 192.141 19.375 192.141 20V29H189.328V21.8047C189.328 21.2734 189.32 20.7734 189.305 20.3047C189.305 19.8203 189.258 19.3906 189.164 19.0156C189.07 18.6406 188.914 18.3516 188.695 18.1484C188.492 17.9297 188.172 17.8203 187.734 17.8203C187.625 17.8203 187.391 17.8438 187.031 17.8906C186.672 17.9375 186.258 18.0703 185.789 18.2891V16.4375C186.211 16.1875 186.641 15.9922 187.078 15.8516C187.516 15.7109 187.922 15.6406 188.297 15.6406ZM184.242 17.4453C184.43 17.7266 184.562 18.0312 184.641 18.3594C184.734 18.6719 184.789 19 184.805 19.3438C184.836 19.6875 184.844 20.0469 184.828 20.4219C184.828 20.7812 184.828 21.1641 184.828 21.5703V29H181.992V21.8047C181.992 21.2734 181.992 20.7734 181.992 20.3047C181.992 19.8203 181.945 19.3906 181.852 19.0156C181.758 18.6406 181.602 18.3516 181.383 18.1484C181.164 17.9297 180.844 17.8203 180.422 17.8203C180.234 17.8203 179.953 17.8594 179.578 17.9375C179.219 18 178.859 18.1172 178.5 18.2891V16.4375C178.875 16.2188 179.273 16.0391 179.695 15.8984C180.133 15.7578 180.562 15.6875 180.984 15.6875C181.703 15.6875 182.305 15.8359 182.789 16.1328C183.289 16.4297 183.773 16.8672 184.242 17.4453ZM196.172 10.7891H199.008V27.4297C198.992 27.6484 198.969 27.8984 198.938 28.1797C198.906 28.4609 198.883 28.7344 198.867 29H196.172V10.7891ZM207.727 19.7891C207.914 20.5078 208.008 21.2969 208.008 22.1562C208.008 23.0469 207.898 23.9141 207.68 24.7578C207.477 25.6016 207.156 26.3516 206.719 27.0078C206.297 27.6484 205.758 28.1641 205.102 28.5547C204.461 28.9297 203.703 29.1172 202.828 29.1172C202.281 29.1172 201.758 29.0547 201.258 28.9297C200.758 28.8047 200.328 28.6328 199.969 28.4141V25.9766C200.203 26.2422 200.477 26.4609 200.789 26.6328C201.117 26.8047 201.477 26.8906 201.867 26.8906C202.336 26.8906 202.758 26.7734 203.133 26.5391C203.523 26.3047 203.852 25.9922 204.117 25.6016C204.398 25.1953 204.617 24.7188 204.773 24.1719C204.945 23.625 205.031 23.0391 205.031 22.4141C205.031 21.8047 204.953 21.2266 204.797 20.6797C204.656 20.1328 204.453 19.6484 204.188 19.2266C203.938 18.8047 203.625 18.4688 203.25 18.2188C202.875 17.9688 202.453 17.8438 201.984 17.8438C201.578 17.8438 201.203 17.9297 200.859 18.1016C200.531 18.2578 200.234 18.4922 199.969 18.8047V16.2969C200.328 16.0938 200.727 15.9375 201.164 15.8281C201.602 15.7188 202.055 15.6641 202.523 15.6641C203.039 15.6641 203.562 15.7344 204.094 15.875C204.625 16.0156 205.117 16.25 205.57 16.5781C206.039 16.9062 206.461 17.3359 206.836 17.8672C207.227 18.3984 207.523 19.0391 207.727 19.7891Z" fill="#1B1A1A"/>
</svg>
