<svg width="241" height="38" viewBox="0 0 241 38" fill="none" xmlns="http://www.w3.org/2000/svg">
<path d="M14.9988 3.08984H19.2879V29H14.9988L6.28008 13.6719V5.58594L14.9988 20.9492V3.08984ZM0.549606 29V3.08984H4.83867V29H0.549606ZM35.187 9.06641C36.476 9.13672 37.6479 9.45312 38.7026 10.0156C39.7573 10.5547 40.6362 11.2812 41.3393 12.1953C42.0659 13.0859 42.6284 14.1289 43.0268 15.3242C43.4252 16.5195 43.6245 17.7969 43.6245 19.1562C43.6245 20.5156 43.4135 21.793 42.9916 22.9883C42.5932 24.1602 42.0307 25.1914 41.3041 26.082C40.5776 26.9492 39.687 27.6523 38.6323 28.1914C37.5776 28.7305 36.4291 29.0469 35.187 29.1406V25.7656C36.3588 25.5078 37.308 24.7695 38.0346 23.5508C38.7846 22.332 39.1596 20.8672 39.1596 19.1562C39.1596 18.2891 39.0659 17.4805 38.8784 16.7305C38.7143 15.957 38.4565 15.2656 38.1049 14.6562C37.7534 14.0469 37.3315 13.543 36.8393 13.1445C36.3471 12.7461 35.7963 12.4883 35.187 12.3711V9.06641ZM25.3784 19.0859C25.3784 17.7266 25.5776 16.4609 25.976 15.2891C26.3745 14.1172 26.937 13.0977 27.6635 12.2305C28.4135 11.3398 29.3041 10.625 30.3354 10.0859C31.3666 9.54687 32.5034 9.21875 33.7455 9.10156V12.3711C32.5737 12.6289 31.6362 13.3672 30.933 14.5859C30.2299 15.8047 29.8784 17.2695 29.8784 18.9805C29.8784 19.8477 29.9604 20.668 30.1245 21.4414C30.312 22.2148 30.5698 22.9062 30.8979 23.5156C31.226 24.125 31.6245 24.6289 32.0932 25.0273C32.5854 25.4258 33.1362 25.6719 33.7455 25.7656V29.1406C32.4565 29.0469 31.2963 28.7305 30.2651 28.1914C29.2338 27.6289 28.3549 26.9023 27.6284 26.0117C26.9018 25.1211 26.3393 24.0781 25.9409 22.8828C25.5659 21.6875 25.3784 20.4219 25.3784 19.0859ZM49.504 1.68359H53.7579V26.6445C53.7345 26.9727 53.6993 27.3477 53.6524 27.7695C53.6055 28.1914 53.5704 28.6016 53.547 29H49.504V1.68359ZM66.836 15.1836C67.1173 16.2617 67.2579 17.4453 67.2579 18.7344C67.2579 20.0703 67.0938 21.3711 66.7657 22.6367C66.461 23.9023 65.9805 25.0273 65.3243 26.0117C64.6915 26.9727 63.8829 27.7461 62.8985 28.332C61.9376 28.8945 60.8009 29.1758 59.4884 29.1758C58.668 29.1758 57.8829 29.082 57.1329 28.8945C56.3829 28.707 55.7384 28.4492 55.1993 28.1211V24.4648C55.5509 24.8633 55.961 25.1914 56.4298 25.4492C56.922 25.707 57.461 25.8359 58.047 25.8359C58.7501 25.8359 59.3829 25.6602 59.9454 25.3086C60.5313 24.957 61.0235 24.4883 61.422 23.9023C61.8438 23.293 62.172 22.5781 62.4063 21.7578C62.6641 20.9375 62.793 20.0586 62.793 19.1211C62.793 18.207 62.6759 17.3398 62.4415 16.5195C62.2305 15.6992 61.9259 14.9727 61.5274 14.3398C61.1524 13.707 60.6837 13.2031 60.1212 12.8281C59.5587 12.4531 58.9259 12.2656 58.2227 12.2656C57.6134 12.2656 57.0509 12.3945 56.5352 12.6523C56.043 12.8867 55.5977 13.2383 55.1993 13.707V9.94531C55.7384 9.64063 56.336 9.40625 56.9923 9.24219C57.6485 9.07813 58.3282 8.99609 59.0313 8.99609C59.8048 8.99609 60.5899 9.10156 61.3868 9.3125C62.1837 9.52344 62.922 9.875 63.6016 10.3672C64.3048 10.8594 64.9376 11.5039 65.5001 12.3008C66.086 13.0977 66.5313 14.0586 66.836 15.1836ZM81.7155 9.06641C83.0046 9.13672 84.1765 9.45312 85.2312 10.0156C86.2859 10.5547 87.1648 11.2812 87.8679 12.1953C88.5945 13.0859 89.157 14.1289 89.5554 15.3242C89.9538 16.5195 90.153 17.7969 90.153 19.1562C90.153 20.5156 89.9421 21.793 89.5202 22.9883C89.1218 24.1602 88.5593 25.1914 87.8327 26.082C87.1062 26.9492 86.2155 27.6523 85.1609 28.1914C84.1062 28.7305 82.9577 29.0469 81.7155 29.1406V25.7656C82.8874 25.5078 83.8366 24.7695 84.5632 23.5508C85.3132 22.332 85.6882 20.8672 85.6882 19.1562C85.6882 18.2891 85.5945 17.4805 85.407 16.7305C85.2429 15.957 84.9851 15.2656 84.6335 14.6562C84.282 14.0469 83.8601 13.543 83.3679 13.1445C82.8757 12.7461 82.3249 12.4883 81.7155 12.3711V9.06641ZM71.907 19.0859C71.907 17.7266 72.1062 16.4609 72.5046 15.2891C72.903 14.1172 73.4655 13.0977 74.1921 12.2305C74.9421 11.3398 75.8327 10.625 76.864 10.0859C77.8952 9.54687 79.032 9.21875 80.2741 9.10156V12.3711C79.1023 12.6289 78.1648 13.3672 77.4616 14.5859C76.7585 15.8047 76.407 17.2695 76.407 18.9805C76.407 19.8477 76.489 20.668 76.653 21.4414C76.8405 22.2148 77.0984 22.9062 77.4265 23.5156C77.7546 24.125 78.153 24.6289 78.6218 25.0273C79.114 25.4258 79.6648 25.6719 80.2741 25.7656V29.1406C78.9851 29.0469 77.8249 28.7305 76.7937 28.1914C75.7624 27.6289 74.8835 26.9023 74.157 26.0117C73.4304 25.1211 72.8679 24.0781 72.4695 22.8828C72.0945 21.6875 71.907 20.4219 71.907 19.0859ZM112.556 1.68359V29H108.513L108.267 26.6445V1.68359H112.556ZM94.767 18.8047C94.767 16.9766 95.013 15.4414 95.5052 14.1992C96.0209 12.957 96.6771 11.9492 97.474 11.1758C98.2709 10.4023 99.1498 9.85156 100.111 9.52344C101.095 9.17188 102.056 8.99609 102.994 8.99609C103.72 8.99609 104.411 9.07813 105.068 9.24219C105.724 9.40625 106.31 9.64063 106.826 9.94531V13.6719C106.427 13.25 105.982 12.9102 105.49 12.6523C104.997 12.3945 104.447 12.2656 103.837 12.2656C103.111 12.2656 102.466 12.4531 101.904 12.8281C101.341 13.1797 100.861 13.6719 100.462 14.3047C100.087 14.9375 99.7943 15.6641 99.5834 16.4844C99.3724 17.3047 99.267 18.1836 99.267 19.1211C99.267 20.0586 99.3841 20.9375 99.6185 21.7578C99.8529 22.5547 100.169 23.2578 100.568 23.8672C100.966 24.4766 101.447 24.957 102.009 25.3086C102.595 25.6602 103.228 25.8359 103.908 25.8359C105.056 25.8359 106.029 25.3789 106.826 24.4648V28.1211C106.263 28.4258 105.607 28.6836 104.857 28.8945C104.13 29.082 103.357 29.1758 102.536 29.1758C101.599 29.1758 100.673 29.0117 99.7591 28.6836C98.8685 28.332 98.0716 27.7695 97.3685 26.9961C96.4779 25.9883 95.8216 24.7461 95.3998 23.2695C94.9779 21.7695 94.767 20.2812 94.767 18.8047ZM138.053 9.17188C136.764 12.6172 135.615 15.6758 134.607 18.3477C133.6 20.9961 132.721 23.3281 131.971 25.3438C131.221 27.3359 130.553 29.0234 129.967 30.4062C129.404 31.7891 128.877 32.9375 128.385 33.8516C127.916 34.7891 127.471 35.5156 127.049 36.0312C126.627 36.5703 126.193 36.9805 125.748 37.2617C125.303 37.543 124.811 37.707 124.271 37.7539C123.756 37.8242 123.158 37.8594 122.479 37.8594C122.268 37.8594 122.021 37.8242 121.74 37.7539C121.459 37.707 121.178 37.6367 120.896 37.543C120.639 37.4727 120.404 37.3906 120.193 37.2969C119.982 37.2266 119.842 37.1797 119.771 37.1562C119.865 36.7344 119.959 36.3359 120.053 35.9609C120.123 35.6328 120.193 35.3164 120.264 35.0117C120.357 34.7305 120.428 34.5312 120.475 34.4141C120.662 34.4141 120.943 34.4727 121.318 34.5898C121.717 34.707 122.01 34.7656 122.197 34.7656C122.572 34.7656 122.9 34.7422 123.182 34.6953C123.486 34.6719 123.756 34.5664 123.99 34.3789C124.225 34.2148 124.447 33.957 124.658 33.6055C124.869 33.2773 125.104 32.7969 125.361 32.1641L126.697 29L133.764 9.17188H138.053ZM125.959 27.1367L118.576 9.17188H122.83L127.893 22.4961L127.4 23.6914L125.959 27.1367ZM157.749 8.08203C157.21 7.47266 156.635 7.01562 156.026 6.71094C155.417 6.40625 154.76 6.23047 154.057 6.18359V2.70312C156.682 2.82031 158.885 3.74609 160.667 5.48047L157.749 8.08203ZM154.057 25.6953C154.76 25.625 155.417 25.4375 156.026 25.1328C156.659 24.8281 157.233 24.3828 157.749 23.7969L160.667 26.3633C159.776 27.2305 158.78 27.8984 157.678 28.3672C156.577 28.8359 155.37 29.1055 154.057 29.1758V25.6953ZM142.667 15.9219C142.667 13.8359 142.913 11.9961 143.405 10.4023C143.921 8.80859 144.624 7.46094 145.514 6.35938C146.405 5.25781 147.448 4.40234 148.643 3.79297C149.862 3.18359 151.186 2.82031 152.616 2.70312V6.21875C151.842 6.33594 151.116 6.60547 150.436 7.02734C149.756 7.42578 149.159 8.01172 148.643 8.78516C148.128 9.55859 147.717 10.543 147.413 11.7383C147.131 12.9102 146.979 14.3047 146.956 15.9219C146.979 17.5625 147.131 18.9688 147.413 20.1406C147.717 21.3125 148.128 22.2969 148.643 23.0938C149.159 23.8906 149.756 24.5 150.436 24.9219C151.139 25.3438 151.866 25.6016 152.616 25.6953V29.1406C151.186 29.0469 149.862 28.6953 148.643 28.0859C147.448 27.4766 146.405 26.6211 145.514 25.5195C144.624 24.418 143.921 23.0703 143.405 21.4766C142.913 19.8594 142.667 18.0078 142.667 15.9219ZM171.081 22.9531C171.081 23.75 171.187 24.3828 171.398 24.8516C171.609 25.2969 171.902 25.6367 172.277 25.8711C172.652 26.082 173.074 26.2227 173.542 26.293C174.034 26.3633 174.562 26.3984 175.124 26.3984V29C174.82 29.0469 174.503 29.082 174.175 29.1055C173.917 29.1289 173.613 29.1406 173.261 29.1406C172.909 29.1641 172.558 29.1758 172.206 29.1758C171.855 29.1758 171.503 29.1641 171.152 29.1406C170.8 29.1172 170.484 29.082 170.202 29.0352C169.406 28.8711 168.784 28.5195 168.339 27.9805C167.894 27.4414 167.554 26.8438 167.32 26.1875C167.085 25.5078 166.933 24.8516 166.863 24.2188C166.816 23.5859 166.792 23.0938 166.792 22.7422V22.3203V1.68359H171.081V22.9531ZM184.238 29H179.949V9.17188H184.238V29ZM184.625 2.84375C184.625 3.54688 184.379 4.14453 183.887 4.63672C183.394 5.10547 182.797 5.33984 182.094 5.33984C181.391 5.33984 180.793 5.09375 180.301 4.60156C179.832 4.10938 179.598 3.52344 179.598 2.84375C179.598 2.14062 179.844 1.54297 180.336 1.05078C180.828 0.558594 181.414 0.3125 182.094 0.3125C182.797 0.3125 183.394 0.558594 183.887 1.05078C184.379 1.54297 184.625 2.14062 184.625 2.84375ZM194.407 9.17188L194.864 11.2109V29H190.575V9.17188H194.407ZM211.001 8.96094C211.797 8.96094 212.547 9.125 213.251 9.45312C213.954 9.75781 214.563 10.2031 215.079 10.7891C215.618 11.375 216.028 12.0781 216.309 12.8984C216.614 13.6953 216.766 14.5625 216.766 15.5V29H212.547V18.207C212.547 17.4102 212.536 16.6602 212.512 15.957C212.512 15.2305 212.442 14.5859 212.301 14.0234C212.161 13.4609 211.926 13.0273 211.598 12.7227C211.294 12.3945 210.813 12.2305 210.157 12.2305C209.993 12.2305 209.641 12.2656 209.102 12.3359C208.563 12.4062 207.942 12.6055 207.239 12.9336V10.1562C207.872 9.78125 208.516 9.48828 209.172 9.27734C209.829 9.06641 210.438 8.96094 211.001 8.96094ZM204.919 11.668C205.2 12.0898 205.399 12.5469 205.516 13.0391C205.657 13.5078 205.739 14 205.762 14.5156C205.809 15.0312 205.821 15.5703 205.797 16.1328C205.797 16.6719 205.797 17.2461 205.797 17.8555V29H201.544V18.207C201.544 17.4102 201.544 16.6602 201.544 15.957C201.544 15.2305 201.473 14.5859 201.333 14.0234C201.192 13.4609 200.958 13.0273 200.629 12.7227C200.301 12.3945 199.821 12.2305 199.188 12.2305C198.907 12.2305 198.485 12.2891 197.922 12.4062C197.383 12.5 196.844 12.6758 196.305 12.9336V10.1562C196.868 9.82812 197.465 9.55859 198.098 9.34766C198.754 9.13672 199.399 9.03125 200.032 9.03125C201.11 9.03125 202.012 9.25391 202.739 9.69922C203.489 10.1445 204.215 10.8008 204.919 11.668ZM223.173 1.68359H227.427V26.6445C227.404 26.9727 227.368 27.3477 227.321 27.7695C227.275 28.1914 227.239 28.6016 227.216 29H223.173V1.68359ZM240.505 15.1836C240.786 16.2617 240.927 17.4453 240.927 18.7344C240.927 20.0703 240.763 21.3711 240.435 22.6367C240.13 23.9023 239.65 25.0273 238.993 26.0117C238.361 26.9727 237.552 27.7461 236.568 28.332C235.607 28.8945 234.47 29.1758 233.157 29.1758C232.337 29.1758 231.552 29.082 230.802 28.8945C230.052 28.707 229.407 28.4492 228.868 28.1211V24.4648C229.22 24.8633 229.63 25.1914 230.099 25.4492C230.591 25.707 231.13 25.8359 231.716 25.8359C232.419 25.8359 233.052 25.6602 233.614 25.3086C234.2 24.957 234.693 24.4883 235.091 23.9023C235.513 23.293 235.841 22.5781 236.075 21.7578C236.333 20.9375 236.462 20.0586 236.462 19.1211C236.462 18.207 236.345 17.3398 236.111 16.5195C235.9 15.6992 235.595 14.9727 235.196 14.3398C234.821 13.707 234.353 13.2031 233.79 12.8281C233.228 12.4531 232.595 12.2656 231.892 12.2656C231.282 12.2656 230.72 12.3945 230.204 12.6523C229.712 12.8867 229.267 13.2383 228.868 13.707V9.94531C229.407 9.64063 230.005 9.40625 230.661 9.24219C231.318 9.07813 231.997 8.99609 232.7 8.99609C233.474 8.99609 234.259 9.10156 235.056 9.3125C235.853 9.52344 236.591 9.875 237.271 10.3672C237.974 10.8594 238.607 11.5039 239.169 12.3008C239.755 13.0977 240.2 14.0586 240.505 15.1836Z" fill="white"/>
</svg>
