<svg width="210" height="40" viewBox="0 0 210 40" fill="none" xmlns="http://www.w3.org/2000/svg">
<path d="M32 6.60207L26.0755 4L22 7.92643L26.9952 13L31.0707 11.9834L32 6.60207Z" stroke="#DBD8D8" stroke-width="1.2" stroke-linecap="round" stroke-linejoin="round"/>
<path d="M33.4778 22.6698L31.807 16H28.3228H27.6772H24.193L22.5127 22.6698L22 36H27.6772H28.3228H34L33.4778 22.6698Z" stroke="#DBD8D8" stroke-width="1.2" stroke-linecap="round" stroke-linejoin="round"/>
<path d="M15 15.0633L14.2327 9.21811L8.80585 8L7 14.3535L9.93801 17L15 15.0633Z" stroke="#DBD8D8" stroke-width="1.2" stroke-linecap="round" stroke-linejoin="round"/>
<path d="M17.4873 25.3365L14.5 20H12.3228H11.6772H8.19304L6.51266 25.3365L6 36H11.6772H12.3228H18L17.4873 25.3365Z" stroke="#DBD8D8" stroke-width="1.2" stroke-linecap="round" stroke-linejoin="round"/>
<path d="M27 20L30 24" stroke="#DBD8D8" stroke-width="1.2" stroke-linecap="round" stroke-linejoin="round"/>
<path d="M27 8L29 9" stroke="#DBD8D8" stroke-width="1.2" stroke-linecap="round" stroke-linejoin="round"/>
<path d="M14 26L9 32" stroke="#DBD8D8" stroke-width="1.2" stroke-linecap="round" stroke-linejoin="round"/>
<path d="M12 11L10 14" stroke="#DBD8D8" stroke-width="1.2" stroke-linecap="round" stroke-linejoin="round"/>
<path d="M30 27L26 33" stroke="#DBD8D8" stroke-width="1.2" stroke-linecap="round" stroke-linejoin="round"/>
<path d="M60.1992 11.7266H63.0586V29H60.1992L54.3867 18.7812V13.3906L60.1992 23.6328V11.7266ZM50.5664 29V11.7266H53.4258V29H50.5664ZM73.418 15.7109C74.2773 15.7578 75.0586 15.9688 75.7617 16.3438C76.4648 16.7031 77.0508 17.1875 77.5195 17.7969C78.0039 18.3906 78.3789 19.0859 78.6445 19.8828C78.9102 20.6797 79.043 21.5312 79.043 22.4375C79.043 23.3438 78.9023 24.1953 78.6211 24.9922C78.3555 25.7734 77.9805 26.4609 77.4961 27.0547C77.0117 27.6328 76.418 28.1016 75.7148 28.4609C75.0117 28.8203 74.2461 29.0312 73.418 29.0938V26.8438C74.1992 26.6719 74.832 26.1797 75.3164 25.3672C75.8164 24.5547 76.0664 23.5781 76.0664 22.4375C76.0664 21.8594 76.0039 21.3203 75.8789 20.8203C75.7695 20.3047 75.5977 19.8438 75.3633 19.4375C75.1289 19.0312 74.8477 18.6953 74.5195 18.4297C74.1914 18.1641 73.8242 17.9922 73.418 17.9141V15.7109ZM66.8789 22.3906C66.8789 21.4844 67.0117 20.6406 67.2773 19.8594C67.543 19.0781 67.918 18.3984 68.4023 17.8203C68.9023 17.2266 69.4961 16.75 70.1836 16.3906C70.8711 16.0312 71.6289 15.8125 72.457 15.7344V17.9141C71.6758 18.0859 71.0508 18.5781 70.582 19.3906C70.1133 20.2031 69.8789 21.1797 69.8789 22.3203C69.8789 22.8984 69.9336 23.4453 70.043 23.9609C70.168 24.4766 70.3398 24.9375 70.5586 25.3438C70.7773 25.75 71.043 26.0859 71.3555 26.3516C71.6836 26.6172 72.0508 26.7812 72.457 26.8438V29.0938C71.5977 29.0312 70.8242 28.8203 70.1367 28.4609C69.4492 28.0859 68.8633 27.6016 68.3789 27.0078C67.8945 26.4141 67.5195 25.7188 67.2539 24.9219C67.0039 24.125 66.8789 23.2812 66.8789 22.3906ZM82.7227 10.7891H85.5586V27.4297C85.543 27.6484 85.5195 27.8984 85.4883 28.1797C85.457 28.4609 85.4336 28.7344 85.418 29H82.7227V10.7891ZM94.2773 19.7891C94.4648 20.5078 94.5586 21.2969 94.5586 22.1562C94.5586 23.0469 94.4492 23.9141 94.2305 24.7578C94.0273 25.6016 93.707 26.3516 93.2695 27.0078C92.8477 27.6484 92.3086 28.1641 91.6523 28.5547C91.0117 28.9297 90.2539 29.1172 89.3789 29.1172C88.832 29.1172 88.3086 29.0547 87.8086 28.9297C87.3086 28.8047 86.8789 28.6328 86.5195 28.4141V25.9766C86.7539 26.2422 87.0273 26.4609 87.3398 26.6328C87.668 26.8047 88.0273 26.8906 88.418 26.8906C88.8867 26.8906 89.3086 26.7734 89.6836 26.5391C90.0742 26.3047 90.4023 25.9922 90.668 25.6016C90.9492 25.1953 91.168 24.7188 91.3242 24.1719C91.4961 23.625 91.582 23.0391 91.582 22.4141C91.582 21.8047 91.5039 21.2266 91.3477 20.6797C91.207 20.1328 91.0039 19.6484 90.7383 19.2266C90.4883 18.8047 90.1758 18.4688 89.8008 18.2188C89.4258 17.9688 89.0039 17.8438 88.5352 17.8438C88.1289 17.8438 87.7539 17.9297 87.4102 18.1016C87.082 18.2578 86.7852 18.4922 86.5195 18.8047V16.2969C86.8789 16.0938 87.2773 15.9375 87.7148 15.8281C88.1523 15.7188 88.6055 15.6641 89.0742 15.6641C89.5898 15.6641 90.1133 15.7344 90.6445 15.875C91.1758 16.0156 91.668 16.25 92.1211 16.5781C92.5898 16.9062 93.0117 17.3359 93.3867 17.8672C93.7773 18.3984 94.0742 19.0391 94.2773 19.7891ZM103.957 15.7109C104.816 15.7578 105.598 15.9688 106.301 16.3438C107.004 16.7031 107.59 17.1875 108.059 17.7969C108.543 18.3906 108.918 19.0859 109.184 19.8828C109.449 20.6797 109.582 21.5312 109.582 22.4375C109.582 23.3438 109.441 24.1953 109.16 24.9922C108.895 25.7734 108.52 26.4609 108.035 27.0547C107.551 27.6328 106.957 28.1016 106.254 28.4609C105.551 28.8203 104.785 29.0312 103.957 29.0938V26.8438C104.738 26.6719 105.371 26.1797 105.855 25.3672C106.355 24.5547 106.605 23.5781 106.605 22.4375C106.605 21.8594 106.543 21.3203 106.418 20.8203C106.309 20.3047 106.137 19.8438 105.902 19.4375C105.668 19.0312 105.387 18.6953 105.059 18.4297C104.73 18.1641 104.363 17.9922 103.957 17.9141V15.7109ZM97.418 22.3906C97.418 21.4844 97.5508 20.6406 97.8164 19.8594C98.082 19.0781 98.457 18.3984 98.9414 17.8203C99.4414 17.2266 100.035 16.75 100.723 16.3906C101.41 16.0312 102.168 15.8125 102.996 15.7344V17.9141C102.215 18.0859 101.59 18.5781 101.121 19.3906C100.652 20.2031 100.418 21.1797 100.418 22.3203C100.418 22.8984 100.473 23.4453 100.582 23.9609C100.707 24.4766 100.879 24.9375 101.098 25.3438C101.316 25.75 101.582 26.0859 101.895 26.3516C102.223 26.6172 102.59 26.7812 102.996 26.8438V29.0938C102.137 29.0312 101.363 28.8203 100.676 28.4609C99.9883 28.0859 99.4023 27.6016 98.918 27.0078C98.4336 26.4141 98.0586 25.7188 97.793 24.9219C97.543 24.125 97.418 23.2812 97.418 22.3906ZM124.277 10.7891V29H121.582L121.418 27.4297V10.7891H124.277ZM112.418 22.2031C112.418 20.9844 112.582 19.9609 112.91 19.1328C113.254 18.3047 113.691 17.6328 114.223 17.1172C114.754 16.6016 115.34 16.2344 115.98 16.0156C116.637 15.7812 117.277 15.6641 117.902 15.6641C118.387 15.6641 118.848 15.7188 119.285 15.8281C119.723 15.9375 120.113 16.0938 120.457 16.2969V18.7812C120.191 18.5 119.895 18.2734 119.566 18.1016C119.238 17.9297 118.871 17.8438 118.465 17.8438C117.98 17.8438 117.551 17.9688 117.176 18.2188C116.801 18.4531 116.48 18.7812 116.215 19.2031C115.965 19.625 115.77 20.1094 115.629 20.6562C115.488 21.2031 115.418 21.7891 115.418 22.4141C115.418 23.0391 115.496 23.625 115.652 24.1719C115.809 24.7031 116.02 25.1719 116.285 25.5781C116.551 25.9844 116.871 26.3047 117.246 26.5391C117.637 26.7734 118.059 26.8906 118.512 26.8906C119.277 26.8906 119.926 26.5859 120.457 25.9766V28.4141C120.082 28.6172 119.645 28.7891 119.145 28.9297C118.66 29.0547 118.145 29.1172 117.598 29.1172C116.973 29.1172 116.355 29.0078 115.746 28.7891C115.152 28.5547 114.621 28.1797 114.152 27.6641C113.559 26.9922 113.121 26.1641 112.84 25.1797C112.559 24.1797 112.418 23.1875 112.418 22.2031ZM141.035 15.7812C140.176 18.0781 139.41 20.1172 138.738 21.8984C138.066 23.6641 137.48 25.2188 136.98 26.5625C136.48 27.8906 136.035 29.0156 135.645 29.9375C135.27 30.8594 134.918 31.625 134.59 32.2344C134.277 32.8594 133.98 33.3438 133.699 33.6875C133.418 34.0469 133.129 34.3203 132.832 34.5078C132.535 34.6953 132.207 34.8047 131.848 34.8359C131.504 34.8828 131.105 34.9062 130.652 34.9062C130.512 34.9062 130.348 34.8828 130.16 34.8359C129.973 34.8047 129.785 34.7578 129.598 34.6953C129.426 34.6484 129.27 34.5938 129.129 34.5312C128.988 34.4844 128.895 34.4531 128.848 34.4375C128.91 34.1562 128.973 33.8906 129.035 33.6406C129.082 33.4219 129.129 33.2109 129.176 33.0078C129.238 32.8203 129.285 32.6875 129.316 32.6094C129.441 32.6094 129.629 32.6484 129.879 32.7266C130.145 32.8047 130.34 32.8438 130.465 32.8438C130.715 32.8438 130.934 32.8281 131.121 32.7969C131.324 32.7812 131.504 32.7109 131.66 32.5859C131.816 32.4766 131.965 32.3047 132.105 32.0703C132.246 31.8516 132.402 31.5312 132.574 31.1094L133.465 29L138.176 15.7812H141.035ZM132.973 27.7578L128.051 15.7812H130.887L134.262 24.6641L133.934 25.4609L132.973 27.7578ZM153.926 15.0547C153.566 14.6484 153.184 14.3438 152.777 14.1406C152.371 13.9375 151.934 13.8203 151.465 13.7891V11.4688C153.215 11.5469 154.684 12.1641 155.871 13.3203L153.926 15.0547ZM151.465 26.7969C151.934 26.75 152.371 26.625 152.777 26.4219C153.199 26.2188 153.582 25.9219 153.926 25.5312L155.871 27.2422C155.277 27.8203 154.613 28.2656 153.879 28.5781C153.145 28.8906 152.34 29.0703 151.465 29.1172V26.7969ZM143.871 20.2812C143.871 18.8906 144.035 17.6641 144.363 16.6016C144.707 15.5391 145.176 14.6406 145.77 13.9062C146.363 13.1719 147.059 12.6016 147.855 12.1953C148.668 11.7891 149.551 11.5469 150.504 11.4688V13.8125C149.988 13.8906 149.504 14.0703 149.051 14.3516C148.598 14.6172 148.199 15.0078 147.855 15.5234C147.512 16.0391 147.238 16.6953 147.035 17.4922C146.848 18.2734 146.746 19.2031 146.73 20.2812C146.746 21.375 146.848 22.3125 147.035 23.0938C147.238 23.875 147.512 24.5312 147.855 25.0625C148.199 25.5938 148.598 26 149.051 26.2812C149.52 26.5625 150.004 26.7344 150.504 26.7969V29.0938C149.551 29.0312 148.668 28.7969 147.855 28.3906C147.059 27.9844 146.363 27.4141 145.77 26.6797C145.176 25.9453 144.707 25.0469 144.363 23.9844C144.035 22.9062 143.871 21.6719 143.871 20.2812ZM162.574 24.9688C162.574 25.5 162.645 25.9219 162.785 26.2344C162.926 26.5312 163.121 26.7578 163.371 26.9141C163.621 27.0547 163.902 27.1484 164.215 27.1953C164.543 27.2422 164.895 27.2656 165.27 27.2656V29C165.066 29.0312 164.855 29.0547 164.637 29.0703C164.465 29.0859 164.262 29.0938 164.027 29.0938C163.793 29.1094 163.559 29.1172 163.324 29.1172C163.09 29.1172 162.855 29.1094 162.621 29.0938C162.387 29.0781 162.176 29.0547 161.988 29.0234C161.457 28.9141 161.043 28.6797 160.746 28.3203C160.449 27.9609 160.223 27.5625 160.066 27.125C159.91 26.6719 159.809 26.2344 159.762 25.8125C159.73 25.3906 159.715 25.0625 159.715 24.8281V24.5469V10.7891H162.574V24.9688ZM171.105 29H168.246V15.7812H171.105V29ZM171.363 11.5625C171.363 12.0312 171.199 12.4297 170.871 12.7578C170.543 13.0703 170.145 13.2266 169.676 13.2266C169.207 13.2266 168.809 13.0625 168.48 12.7344C168.168 12.4062 168.012 12.0156 168.012 11.5625C168.012 11.0938 168.176 10.6953 168.504 10.3672C168.832 10.0391 169.223 9.875 169.676 9.875C170.145 9.875 170.543 10.0391 170.871 10.3672C171.199 10.6953 171.363 11.0938 171.363 11.5625ZM177.645 15.7812L177.949 17.1406V29H175.09V15.7812H177.645ZM188.707 15.6406C189.238 15.6406 189.738 15.75 190.207 15.9688C190.676 16.1719 191.082 16.4688 191.426 16.8594C191.785 17.25 192.059 17.7188 192.246 18.2656C192.449 18.7969 192.551 19.375 192.551 20V29H189.738V21.8047C189.738 21.2734 189.73 20.7734 189.715 20.3047C189.715 19.8203 189.668 19.3906 189.574 19.0156C189.48 18.6406 189.324 18.3516 189.105 18.1484C188.902 17.9297 188.582 17.8203 188.145 17.8203C188.035 17.8203 187.801 17.8438 187.441 17.8906C187.082 17.9375 186.668 18.0703 186.199 18.2891V16.4375C186.621 16.1875 187.051 15.9922 187.488 15.8516C187.926 15.7109 188.332 15.6406 188.707 15.6406ZM184.652 17.4453C184.84 17.7266 184.973 18.0312 185.051 18.3594C185.145 18.6719 185.199 19 185.215 19.3438C185.246 19.6875 185.254 20.0469 185.238 20.4219C185.238 20.7812 185.238 21.1641 185.238 21.5703V29H182.402V21.8047C182.402 21.2734 182.402 20.7734 182.402 20.3047C182.402 19.8203 182.355 19.3906 182.262 19.0156C182.168 18.6406 182.012 18.3516 181.793 18.1484C181.574 17.9297 181.254 17.8203 180.832 17.8203C180.645 17.8203 180.363 17.8594 179.988 17.9375C179.629 18 179.27 18.1172 178.91 18.2891V16.4375C179.285 16.2188 179.684 16.0391 180.105 15.8984C180.543 15.7578 180.973 15.6875 181.395 15.6875C182.113 15.6875 182.715 15.8359 183.199 16.1328C183.699 16.4297 184.184 16.8672 184.652 17.4453ZM196.582 10.7891H199.418V27.4297C199.402 27.6484 199.379 27.8984 199.348 28.1797C199.316 28.4609 199.293 28.7344 199.277 29H196.582V10.7891ZM208.137 19.7891C208.324 20.5078 208.418 21.2969 208.418 22.1562C208.418 23.0469 208.309 23.9141 208.09 24.7578C207.887 25.6016 207.566 26.3516 207.129 27.0078C206.707 27.6484 206.168 28.1641 205.512 28.5547C204.871 28.9297 204.113 29.1172 203.238 29.1172C202.691 29.1172 202.168 29.0547 201.668 28.9297C201.168 28.8047 200.738 28.6328 200.379 28.4141V25.9766C200.613 26.2422 200.887 26.4609 201.199 26.6328C201.527 26.8047 201.887 26.8906 202.277 26.8906C202.746 26.8906 203.168 26.7734 203.543 26.5391C203.934 26.3047 204.262 25.9922 204.527 25.6016C204.809 25.1953 205.027 24.7188 205.184 24.1719C205.355 23.625 205.441 23.0391 205.441 22.4141C205.441 21.8047 205.363 21.2266 205.207 20.6797C205.066 20.1328 204.863 19.6484 204.598 19.2266C204.348 18.8047 204.035 18.4688 203.66 18.2188C203.285 17.9688 202.863 17.8438 202.395 17.8438C201.988 17.8438 201.613 17.9297 201.27 18.1016C200.941 18.2578 200.645 18.4922 200.379 18.8047V16.2969C200.738 16.0938 201.137 15.9375 201.574 15.8281C202.012 15.7188 202.465 15.6641 202.934 15.6641C203.449 15.6641 203.973 15.7344 204.504 15.875C205.035 16.0156 205.527 16.25 205.98 16.5781C206.449 16.9062 206.871 17.3359 207.246 17.8672C207.637 18.3984 207.934 19.0391 208.137 19.7891Z" fill="#DBD8D8"/>
</svg>
