<svg width="11" height="19" viewBox="0 0 11 19" fill="none" xmlns="http://www.w3.org/2000/svg">
<g clip-path="url(#clip0_707_517)">
<path d="M3.30926 19C3.03311 19 2.80926 18.7761 2.80926 18.5V10.5846C2.80926 10.3085 2.5854 10.0846 2.30926 10.0846H0.502441C0.226299 10.0846 0.00244141 9.86079 0.00244141 9.58465V7.37469C0.00244141 7.09855 0.226299 6.87469 0.502441 6.87469H2.30926C2.5854 6.87469 2.80926 6.65084 2.80926 6.37469V4.13297C2.80926 1.97851 4.46725 0 8.28763 0C9.24317 0 10.0449 0.0475282 10.5182 0.0838636C10.7784 0.103838 10.9722 0.325758 10.9643 0.586595L10.9028 2.63314C10.8946 2.9049 10.6712 3.12039 10.3994 3.11876C9.94139 3.11601 9.2143 3.11256 8.4487 3.11256C7.07101 3.11256 6.85029 3.6458 6.85029 4.53083V6.37469C6.85029 6.65084 7.07415 6.87469 7.35029 6.87469H10.4687C10.7559 6.87469 10.9841 7.11604 10.9679 7.40276L10.8437 9.61271C10.8288 9.87753 10.6097 10.0846 10.3445 10.0846H7.35029C7.07415 10.0846 6.85029 10.3085 6.85029 10.5846V18.5C6.85029 18.7761 6.62643 19 6.35029 19H3.30926Z" fill="#1B1A1A"/>
</g>
<defs>
<clipPath id="clip0_707_517">
<rect width="11" height="19" rx="1" fill="white"/>
</clipPath>
</defs>
</svg>
