<svg width="24" height="24" viewBox="0 0 24 24" fill="none" xmlns="http://www.w3.org/2000/svg">
<path d="M16 16L20 20M4 11C4 11.9193 4.18106 12.8295 4.53284 13.6788C4.88463 14.5281 5.40024 15.2997 6.05025 15.9497C6.70026 16.5998 7.47194 17.1154 8.32122 17.4672C9.17049 17.8189 10.0807 18 11 18C11.9193 18 12.8295 17.8189 13.6788 17.4672C14.5281 17.1154 15.2997 16.5998 15.9497 15.9497C16.5998 15.2997 17.1154 14.5281 17.4672 13.6788C17.8189 12.8295 18 11.9193 18 11C18 9.14348 17.2625 7.36301 15.9497 6.05025C14.637 4.7375 12.8565 4 11 4C9.14348 4 7.36301 4.7375 6.05025 6.05025C4.7375 7.36301 4 9.14348 4 11Z" stroke="#1B1A1A" stroke-width="1.5" stroke-linecap="round" stroke-linejoin="round"/>
</svg>
